<svg
    xmlns="http://www.w3.org/2000/svg"
    viewBox="0 0 512 512"
    id="vector">
    <path
        id="path"
        d="M 291 293.5 M 266 293.5 C 266 286.872 268.636 280.509 273.322 275.822 C 278.009 271.136 284.372 268.5 291 268.5 C 297.628 268.5 303.991 271.136 308.678 275.822 C 313.364 280.509 316 286.872 316 293.5 C 316 300.128 313.364 306.491 308.678 311.178 C 303.991 315.864 297.628 318.5 291 318.5 C 284.372 318.5 278.009 315.864 273.322 311.178 C 268.636 306.491 266 300.128 266 293.5"
        fill="#ffd200"/>
    <path
        id="path_1"
        d="M 361 293.5 M 336 293.5 C 336 286.872 338.636 280.509 343.322 275.822 C 348.009 271.136 354.372 268.5 361 268.5 C 367.628 268.5 373.991 271.136 378.678 275.822 C 383.364 280.509 386 286.872 386 293.5 C 386 300.128 383.364 306.491 378.678 311.178 C 373.991 315.864 367.628 318.5 361 318.5 C 354.372 318.5 348.009 315.864 343.322 311.178 C 338.636 306.491 336 300.128 336 293.5"
        fill="#ff4f19"/>
    <path
        id="path_7"
        d="M 221 293.5 M 196 293.5 C 196 286.872 198.636 280.509 203.322 275.822 C 208.009 271.136 214.372 268.5 221 268.5 C 227.628 268.5 233.991 271.136 238.678 275.822 C 243.364 280.509 246 286.872 246 293.5 C 246 300.128 243.364 306.491 238.678 311.178 C 233.991 315.864 227.628 318.5 221 318.5 C 214.372 318.5 208.009 315.864 203.322 311.178 C 198.636 306.491 196 300.128 196 293.5"
        fill="#ff4f19"/>
    <path
        id="path_8"
        d="M 151 293.5 M 126 293.5 C 126 286.872 128.636 280.509 133.322 275.822 C 138.009 271.136 144.372 268.5 151 268.5 C 157.628 268.5 163.991 271.136 168.678 275.822 C 173.364 280.509 176 286.872 176 293.5 C 176 300.128 173.364 306.491 168.678 311.178 C 163.991 315.864 157.628 318.5 151 318.5 C 144.372 318.5 138.009 315.864 133.322 311.178 C 128.636 306.491 126 300.128 126 293.5"
        fill="#30b847"/>
    <path
        id="path_9"
        d="M 492 76 L 20 76 C 8.954 76 0 84.954 0 96 L 0 416 C 0 427.046 8.954 436 20 436 L 492 436 C 503.046 436 512 427.046 512 416 L 512 96 C 512 84.954 503.046 76 492 76 Z M 472 396 L 40 396 L 40 116 L 472 116 L 472 396 Z"
        fill="#30b847"/>
    <path
        id="path_10"
        d="M 151 213.5 L 361 213.5 C 372.046 213.5 381 204.546 381 193.5 C 381 182.454 372.046 173.5 361 173.5 L 151 173.5 C 139.954 173.5 131 182.454 131 193.5 C 131 204.546 139.954 213.5 151 213.5 Z"
        fill="#ffd200"/>
</svg>
